<svg xmlns="http://www.w3.org/2000/svg" width="232" height="163" viewBox="0 0 232 163">
    <g fill="none" fill-rule="evenodd">
        <g>
            <g>
                <g transform="translate(-71.000000, -225.000000) translate(71.632338, 225.000000) translate(10.084539, 0.000000)">
                    <path fill="#E6E6E6" fill-rule="nonzero" d="M41.688 35.164C20.014 44.697 3.963 68.86.801 98.066c-2.669 24.63 3.148 60.915 41.254 59.607 86.058-2.962 141.476 19.387 158.94-21.348 17.466-40.734 12.095-110.394-24.976-114.91-29.48-3.59-92.029-4.857-134.33 13.749z" opacity=".3"/>
                    <path fill="#C9C9C9" fill-rule="nonzero" d="M107.826.1C66.64.1 33.25 33.486 33.242 74.673c-.006 41.187 33.375 74.582 74.562 74.594 41.187.013 74.587-33.363 74.606-74.55.007-19.786-7.848-38.764-21.835-52.758C146.587 7.965 127.612.102 107.826.1zm33.296 114.344c-9.325 7.833-21.118 12.12-33.296 12.101-2.15 0-4.297-.13-6.43-.393-24.386-3.04-43.292-22.773-45.287-47.265-1.995-24.492 13.468-47.024 37.04-53.97 23.57-6.947 48.782 3.597 60.388 25.257 11.607 21.66 6.423 48.491-12.415 64.27z"/>
                    <path fill="#000" fill-rule="nonzero" d="M155.178 132.31c-9.627 7.933-21.1 13.311-33.356 15.637-2.054-4.117-3.97-4.67-8.352-5.884-2.935-.834-5.77-3.95-8.039-5.898-1.661-1.42-3.335-2.982-4.083-5.043-.546-1.614-.534-3.364.034-4.97 2.133.263 4.281.394 6.43.393 12.179.018 23.972-4.268 33.297-12.101 2.915 1.488 5.57 3.436 7.865 5.77 2.647 2.587 4.6 5.8 5.677 9.34.25.903.426 1.824.527 2.755z" opacity=".08"/>
                    <path fill="#FFF" fill-rule="nonzero" d="M107.32 22.829c-15.805.139-30.679 7.49-40.388 19.96-1.014 1.294-2.002 2.668-2.855 4.003-5.324 8.339-8.14 18.032-8.113 27.925.002 2.17.136 4.338.4 6.491l-22.541 2.809c-2.658-21.113 3.828-42.355 17.825-58.382S85.82.322 107.099.113l.22 22.716z" opacity=".46"/>
                    <path fill="#000" fill-rule="nonzero" d="M66.932 17.652v25.137c-1.014 1.294-2.002 2.668-2.855 4.003H38.633c4.56-11.295 11.82-21.3 21.14-29.14h7.159z" opacity=".08"/>
                    <path fill="#FFD200" fill-rule="nonzero" d="M136.96 106.132l-9.62-36.752c-.302-1.155-1.378-1.935-2.57-1.861l-39.54 2.355c-.735.044-1.414.41-1.856 1-.442.59-.602 1.343-.438 2.062l8.733 38.026c.281 1.22 1.42 2.046 2.668 1.934l40.42-3.636c.735-.064 1.404-.449 1.829-1.052.424-.603.56-1.363.373-2.076z"/>
                    <path fill="#FFF" fill-rule="nonzero" d="M123.603 71.301L87.279 73.196 95.538 108.12 132.102 104.797z"/>
                    <path fill="#000" fill-rule="nonzero" d="M112.649 88.286L116.012 103.843 126.926 103.043 123.243 87.599z" opacity=".08"/>
                    <path fill="#E6E6E6" fill-rule="nonzero" d="M121.335 74.31L91.782 76.191 94.037 86.332 123.87 83.923z"/>
                    <path fill="#F4A28C" fill-rule="nonzero" d="M149.628 56.585L152.49 73.136 142.53 76.051 144.344 62.222z"/>
                    <path fill="#CE8172" fill-rule="nonzero" d="M143.817 65.237c1.289-.337 2.449-1.047 3.336-2.041 0 0-.107 3.422-3.816 6.851l.48-4.81z" opacity=".31"/>
                    <path fill="#F4A28C" fill-rule="nonzero" d="M139.147 56.038s-.086 5.71 1.134 9.413c.24.724.758 1.324 1.44 1.664.683.341 1.473.395 2.196.15 1.861-.667 4.183-2.048 4.603-5.103l1.334-5.097s.734-3.222-2.668-5.337c-3.402-2.115-8.159.8-8.039 4.31z"/>
                    <path fill="#F4A28C" fill-rule="nonzero" d="M145.545 60.454s-.114-2.195 1.548-2.141c1.66.053 1.84 3.222-.374 3.676l-1.174-1.535zM139.274 59.607l-1.428 2.308c-.163.266-.18.597-.045.879.135.281.403.475.712.515l2.202.254-1.441-3.956z"/>
                    <path fill="#000" fill-rule="nonzero" d="M126.819 67.379l-10.347.62s4.05 32.549-8.673 43.69l17.426-1.882 4.67-14.743-.948-19.393-2.128-8.292z" opacity=".08"/>
                    <path fill="#1E517B" fill-rule="nonzero" d="M177.64 147.433s11.768-46.145-2.822-61.775c-14.59-15.63-29.647-14.857-40.941-7.399-11.294 7.459-21.641 17.873-5.644 69.174h49.407z"/>
                    <path fill="#F4A28C" fill-rule="nonzero" d="M133.563 80.32s-4.543-6.19-6.744-4.269c-2.202 1.922 1.928 3.73 1.2 6.752-.726 3.022 6.799 1.12 5.544-2.482z"/>
                    <path fill="#24285B" fill-rule="nonzero" d="M154.578 57.779c.06.14.113.287.166.427 2.209 5.686 5.134 11.066 8.706 16.01 1.655 2.289 3.536 4.757 3.37 7.58-.164 1.474-.683 2.887-1.515 4.115-1.2 1.962-2.775 3.79-4.87 4.737-4.243 1.908-9.466-.487-12.108-4.31-2.642-3.822-3.25-8.672-3.383-13.342-.146-5.117.12-10.134-1.727-14.937-2.068 0-5.23-.894-5.337-3.429-.12-3.295 1.114-5.957 5.764-5.51 3.122.3 6.784 1.434 8.712 4.09.938 1.418 1.685 2.955 2.222 4.569z"/>
                    <path fill="#1E517B" fill-rule="nonzero" d="M143.67 85.117c-.375-2.356-1.76-4.432-3.792-5.683-2.031-1.251-4.508-1.554-6.781-.828-5.631 1.682-9.947 8.533-11.922 15.53-4.076 14.43.587 32.47-10.547 30.268-11.134-2.202-5.65-35.29-5.65-35.29l-6.585-.314s-12.395 47.999 14.43 50.82c23.63 2.476 34.91-31.707 30.847-54.503z"/>
                    <path fill="#FFF" fill-rule="nonzero" d="M143.67 85.117c-.375-2.356-1.76-4.432-3.792-5.683-2.031-1.251-4.508-1.554-6.781-.828-5.631 1.682-9.947 8.533-11.922 15.53-4.076 14.43.587 32.47-10.547 30.268-11.134-2.202-5.65-35.29-5.65-35.29l-6.585-.314s-12.395 47.999 14.43 50.82c23.63 2.476 34.91-31.707 30.847-54.503z" opacity=".44"/>
                    <path fill="#000" fill-rule="nonzero" d="M152.49 73.136s13.022 12.995 10.72 30.02c-2.301 17.025-13.91 44.277-13.91 44.277h28.34s8.339-30.834 2.001-53.13c.027.007-3.996-15.87-27.151-21.167z" opacity=".08"/>
                    <path fill="#F4A28C" fill-rule="nonzero" d="M103.777 89.06s-.48-9.04-5.818-8.726c-5.336.314.434 8.466.434 8.466l5.384.26z"/>
                    <path fill="#24285B" fill-rule="nonzero" d="M177.64 147.44L176.552 162.676 122.743 162.676 128.233 147.44z"/>
                    <path fill="#E6E6E6" fill-rule="nonzero" d="M25.877 99.26H76.211V136.398H25.877z" transform="translate(51.044452, 117.829529) rotate(-180.000000) translate(-51.044452, -117.829529)"/>
                    <path stroke="#C1C1C1" stroke-linecap="round" stroke-linejoin="round" stroke-width="2.03" d="M69.32 128.213L63.916 118.04 55.311 123.09 47.986 112.222 40.247 116.472 34.397 107.219"/>
                    <circle cx="34.657" cy="107.646" r="1.775" fill="#24285B" fill-rule="nonzero"/>
                    <circle cx="48.092" cy="112.349" r="1.775" fill="#1E517B" fill-rule="nonzero"/>
                    <circle cx="67.806" cy="106.625" r="3.189" fill="#C1C1C1" fill-rule="nonzero"/>
                    <path fill="#E6E6E6" fill-rule="nonzero" d="M146.539 7.011H188.56699999999998V38.632H146.539z"/>
                    <path fill="#000" fill-rule="nonzero" d="M151.429 21.635H157.266V33.63H151.429zM159.628 15.464H165.46499999999997V33.63H159.628zM168.4 24.543H174.237V33.629H168.4z" opacity=".08"/>
                    <path fill="#1E517B" fill-rule="nonzero" d="M176.953 13.796H182.79V33.629H176.953z"/>
                    <path fill="#FFD200" fill-rule="nonzero" d="M26.298 13.883H63.67699999999999V43.043H26.298z"/>
                    <path fill="#FFF" fill-rule="nonzero" d="M43.576 18.68h2.829v2c0 .127 0 .167.16.2.39.089.773.205 1.147.348 1.464.497 2.573 1.707 2.942 3.208.087.38.127.768.187 1.161h-3.082c-.01-.856-.538-1.62-1.334-1.934v3.802h.18c.96.187 1.89.509 2.762.954.492.245.914.61 1.227 1.06.773 1.173.934 2.645.434 3.957-.45 1.342-1.513 2.388-2.862 2.815-.567.207-1.16.327-1.768.494v1.5h-2.829v-1.554c-.587-.166-1.16-.286-1.707-.487-1.524-.474-2.681-1.72-3.042-3.275-.087-.394-.114-.8-.167-1.214h3.055c.049.52.238 1.019.547 1.44.342.411.812.696 1.334.808v-4.076c-.76-.234-1.5-.44-2.221-.667-1.028-.341-1.834-1.147-2.175-2.175-.219-.661-.294-1.362-.22-2.055.066-.844.382-1.65.907-2.315.762-.946 1.844-1.58 3.042-1.78.22-.048.447-.081.667-.121l-.013-2.095zm2.835 15.343c.56-.067 1.077-.335 1.455-.754.28-.322.413-.747.367-1.171-.047-.425-.27-.81-.614-1.064-.39-.217-.793-.409-1.208-.573v3.562zm-2.835-10.627c-.319.123-.63.263-.934.42-.374.22-.64.585-.735 1.009-.095.423-.01.867.235 1.226.392.387.892.645 1.434.74v-3.395z"/>
                    <circle cx="138.887" cy="59.607" r="2.128" fill="#CCC" fill-rule="nonzero"/>
                    <path fill="#CCC" fill-rule="nonzero" d="M140.055 59.273H144.044V60.273H140.055z"/>
                </g>
            </g>
        </g>
    </g>
</svg>
