<?xml version="1.0" encoding="utf-8"?>
<!-- Generator: Adobe Illustrator 19.0.0, SVG Export Plug-In . SVG Version: 6.00 Build 0)  -->
<svg version="1.1" id="Layer_1" xmlns="http://www.w3.org/2000/svg" xmlns:xlink="http://www.w3.org/1999/xlink" x="0px" y="0px" width="40px" height="32px"
	 viewBox="-40.7 279.7 50.1 41.6" style="enable-background:new -40.7 279.7 50.1 41.6;" xml:space="preserve">
<style type="text/css">
	.st0{fill:#000;}
</style>
<g id="Wireframe-Desktop">
	<g id="Contact-Us_open" transform="translate(-601.000000, -40.000000)">
		<g id="header" transform="translate(59.000000, 28.000000)">
			<g id="Group-41" transform="translate(542.000000, 12.358398)">
				<path id="Fill-1" class="st0" d="M9,279.3h-26.4c-9.7,0-15.1,3.7-15.1,10.3c0,4.5,4.3,8.1,10,9.2c-5.9,0.4-12.2,4.1-12.2,11.8
					v5.1c0,3.6-1.5,4-2.5,4c-1.1,0-2-0.5-2.6-1.7l-0.2-0.3l-0.7,0.4l0.2,0.3c1.2,2.2,3.2,2.6,5.2,2.7c6.1,0.1,10-3.8,10-10.6v-3.7
					c0-4.9,2.5-7.3,7.9-7.3h0.5c0.2,0,0.4-0.2,0.4-0.4c0-0.2-0.2-0.4-0.4-0.4c-4.8-0.1-6.8-3.2-6.8-9.2h0c0.1-6.1,2.1-9.2,7.1-9.2
					h2.3v39.2h-5v0.8h18.8v-0.8h-5v-20h0.6c2.5,0,4.7,0.7,6.3,3.6c1.3,2.4,1.3,5.6,1.3,5.7h0.8v-19.4H2.4c0,0,0,3.2-1.3,5.6
					c-1.6,3-3.8,3.7-6.3,3.7h-0.6v-18.3H-4c11.8,0,12.2,10.1,12.5,14.3h0.8v-14.2v-0.9v0L9,279.3z"/>
			</g>
		</g>
	</g>
</g>
</svg>
