<?xml version="1.0" encoding="utf-8"?>
<!-- Generator: Adobe Illustrator 19.0.0, SVG Export Plug-In . SVG Version: 6.00 Build 0)  -->
<svg version="1.1" id="Layer_1" xmlns="http://www.w3.org/2000/svg" xmlns:xlink="http://www.w3.org/1999/xlink" x="0px" y="0px"
	 viewBox="5 -4 18 16" style="enable-background:new 5 -4 18 16;" xml:space="preserve">
<style type="text/css">
	.st0{fill:none;stroke:#000000;stroke-width:0.5;}
</style>
<path fill="param(fill) none" stroke="param(outline) #000" class="st0" d="M22-1.3c-0.6,0.3-1.3,0.5-2,0.6c0.7-0.4,1.3-1.1,1.5-2c-0.7,0.4-1.4,0.7-2.2,0.9
	C18-3.3,15.8-3.4,14.4-2c-0.7,0.7-1.1,1.6-1.1,2.6c0,0.3,0,0.5,0.1,0.8C10.6,1.2,8-0.1,6.2-2.3C5.3-0.7,5.7,1.3,7.3,2.4
	c-0.6,0-1.1-0.2-1.6-0.4v0c0,1.7,1.2,3.1,2.8,3.5C8,5.6,7.4,5.6,6.9,5.5C7.4,6.9,8.7,7.9,10.2,8c-1.2,1-2.8,1.5-4.3,1.5
	c-0.3,0-0.6,0-0.8-0.1c1.6,1,3.5,1.6,5.4,1.6c6.4,0,9.9-5.4,9.9-10.1V0.5C21,0,21.5-0.6,22-1.3z"/>
</svg>
