<svg xmlns="http://www.w3.org/2000/svg" viewBox="0 0 46.5 46">
	<path stroke="param(outline) #000" fill="param(fill) #000" d="M3.2 17.9c.1-.8.2-1.6.4-2.4 1-4.3 3.4-7.7 7.1-10 4-2.5 8.3-3 12.8-1.7 3.8 1.1 6.8 3.4 9 6.8 1.9 3 2.7 6.2 2.4 9.7-.2 2.5-1 4.8-2.4 7-.2.3-.3.5-.6.9.1.1.3.1.4.2l9.9 9.9c.3.4.7.8.9 1.2.6 1.6-.5 3.2-2.3 3.4-.9.1-1.6-.2-2.3-.9-3.3-3.3-6.6-6.6-9.9-10l-.3-.3c-.5.3-1 .7-1.5.9-4.5 2.5-9.1 2.8-13.8.8-4.2-1.7-7.1-4.8-8.7-9.1-.5-1.4-.8-2.8-.9-4.2 0-.1 0-.1-.1-.2-.1-.6-.1-1.3-.1-2zm28 1c0-6.7-5.4-12.1-12.1-12.1C12.4 6.8 7 12.2 7 18.9 7 25.6 12.4 31 19.1 31c6.7.1 12.1-5.4 12.1-12.1z" />
</svg>