<?xml version="1.0" encoding="utf-8"?>
<!-- Generator: Adobe Illustrator 19.0.0, SVG Export Plug-In . SVG Version: 6.00 Build 0)  -->
<svg version="1.1" id="Layer_1" xmlns="http://www.w3.org/2000/svg" xmlns:xlink="http://www.w3.org/1999/xlink" x="0px" y="0px"
	 viewBox="0 0 75.8 75.5" style="enable-background:new 0 0 75.8 75.5;" xml:space="preserve">
<path id="XMLID_236_" d="M44.5,74.8c-4.4,0-8.7,0-13.1,0c-0.5-2.5-1-4.9-1.4-7.4c-0.8-4.2-4-5.4-7.4-2.7c-6.5,5.1-5.1,4.5-10.6-0.8
	c-0.3-0.3-0.5-0.5-0.8-0.8c-4.2-4.3-4.2-4.3-0.6-9c3.5-4.5,2-7.8-3.7-8.7c-2.1-0.3-4.1-1.2-6.1-1.7c0-4.1,0-8.2,0-12.3
	c2.5-0.5,4.9-1.1,7.4-1.5c4.1-0.7,5.4-4.2,3-7.5C7,16.6,7,16.6,12.1,11.4c0.3-0.3,0.5-0.5,0.8-0.8c4-4.1,4-4.1,8.4-0.7
	c5,3.9,7.7,2.9,8.8-3.4c1-5.8,1-5.8,7-5.8c7.5,0,7.5,0,8.9,7.4c0.8,4.1,3.7,5.3,7.1,3c6.1-4.2,6.1-4.2,11.4,1.2
	c0.2,0.2,0.3,0.3,0.5,0.5c3.9,4,3.9,4,0.5,8.5c-3.7,4.8-2.4,8,3.7,8.8c5.9,0.8,5.9,0.8,5.9,6.5c0,7.7,0,7.7-7.4,9.3
	c-4.2,0.9-5.4,4-2.8,7.4c4.7,6.2,5.2,4.5-0.7,10.6c-0.1,0.1-0.2,0.2-0.3,0.3c-5.2,5.1-4.3,5.4-10.4,0.6c-1.1-0.9-3.3-1.5-4.5-1
	c-1.3,0.6-2.3,2.5-2.8,4C45.3,70,45,72.5,44.5,74.8z M38.1,50.1c6.8-0.1,12.2-5.5,12.2-12.3c0-7-5.5-12.4-12.5-12.4
	C31,25.5,25.6,31,25.6,37.7C25.6,44.6,31.2,50.2,38.1,50.1z"/>
</svg>
