<?xml version="1.0" encoding="utf-8"?>
<!-- Generator: Adobe Illustrator 19.0.0, SVG Export Plug-In . SVG Version: 6.00 Build 0)  -->
<svg version="1.1" id="Layer_1" xmlns="http://www.w3.org/2000/svg" xmlns:xlink="http://www.w3.org/1999/xlink" x="0px" y="0px"
	 viewBox="4 -5 15 19" style="enable-background:new 4 -5 15 19;" xml:space="preserve">
<style type="text/css">
	.st0{fill:none;stroke:#000000;stroke-width:0.5;}
</style>
<path fill="param(fill) none" stroke="param(outline) #000" class="st0" d="M18,1.6c0,3.8-2.1,6.7-5.2,6.7c-1.1,0-2-0.6-2.4-1.2c0,0-0.6,2.3-0.7,2.7C9.3,11.3,8.1,12.8,8,13
	C8,13,7.9,13,7.8,13c0,0,0,0,0-0.1c0-0.2-0.4-2.1,0-3.7C8,8.4,9.1,3.9,9.1,3.9c-0.2-0.5-0.3-1-0.3-1.5c0-1.4,0.8-2.5,1.9-2.5
	c0.9,0,1.3,0.7,1.3,1.5c0,0.9-0.6,2.2-0.9,3.5c-0.2,0.8,0.3,1.6,1.1,1.8c0.1,0,0.3,0.1,0.4,0c1.8,0,3.1-2.4,3.1-5.2
	c0-2.1-1.4-3.7-4-3.7c-2.9,0-4.8,2.2-4.8,4.7c0,0.7,0.2,1.4,0.6,1.9c0.2,0.1,0.2,0.4,0.1,0.5c0,0.2-0.2,0.6-0.2,0.8
	c0,0.2-0.2,0.3-0.4,0.3c0,0,0,0-0.1,0C5.6,5.3,5,3.8,5,2.1C5-0.7,7.3-4,11.9-4C15.6-4,18-1.3,18,1.6z"/>
</svg>
